<?xml version="1.0" encoding="UTF-8"?><svg id="Capa_1" xmlns="http://www.w3.org/2000/svg" xmlns:xlink="http://www.w3.org/1999/xlink" viewBox="0 0 376.83 132.54"><defs><style>.cls-1{fill:none;}.cls-2,.cls-3{fill:#2f388d;}.cls-3{fill-rule:evenodd;}</style><clipPath id="clippath"><rect class="cls-1" x="1054.29" y="-1109.63" width="1920" height="600"/></clipPath></defs><path class="cls-3" d="M217.02,54.17v-30.47c0-1.93.5-3.43,1.47-4.57,1.03-1.13,2.33-1.7,4-1.7,1.37,0,2.57.37,3.53,1.17,1,.77,2.1,2.27,3.3,4.47l4.73,8.57c.97,1.77,1.76,3.3,2.33,4.5.53,1.23,1,2.37,1.33,3.4-.2-2.2-.37-4.2-.47-6-.1-1.8-.17-3.17-.17-4.13v-11.24h8.64v31.67c0,1.47-.4,2.63-1.24,3.53-.83.9-1.94,1.37-3.27,1.37-1.17,0-2.17-.3-2.97-.9-.8-.6-1.7-1.77-2.67-3.5l-7-12.63c-.14-.27-.37-.7-.67-1.27-1.56-2.77-2.63-5.03-3.23-6.77.33,2.4.6,4.57.76,6.54.14,1.97.24,3.83.24,5.57v12.4h-8.67ZM211.59,29c-.93-2.23-2.27-4.23-3.97-5.97-1.77-1.77-3.77-3.13-6-4.07-2.23-.93-4.6-1.4-7.1-1.4h-.03c-2.47,0-4.8.47-6.97,1.4-2.23.9-4.23,2.27-6,4-1.77,1.83-3.13,3.83-4.03,6.07-.93,2.23-1.4,4.6-1.4,7.1s.47,4.9,1.4,7.14c.9,2.2,2.27,4.23,4.03,6.03,1.8,1.77,3.8,3.13,6,4.07,2.2.93,4.54,1.43,6.97,1.43h.03c2.5,0,4.87-.5,7.1-1.43,2.24-.93,4.23-2.3,6-4.07,1.7-1.7,3.03-3.7,3.97-5.97.9-2.27,1.37-4.67,1.37-7.2s-.47-4.87-1.37-7.13ZM201.09,43.01c-1.8,1.86-4,2.8-6.57,2.8h-.03c-2.53,0-4.73-.93-6.53-2.83-1.8-1.9-2.7-4.17-2.7-6.87s.9-5,2.67-6.87c1.8-1.87,4-2.8,6.57-2.84h.03c2.6,0,4.8.94,6.57,2.84,1.8,1.87,2.7,4.13,2.7,6.87s-.9,5-2.7,6.9ZM83.33,18.17h8.97v23.91c0,1.23.33,2.13.93,2.77.63.63,1.57.93,2.8.93h6.97v8.4h-7.1c-4.27,0-7.4-1-9.5-2.97-2.03-1.97-3.07-5-3.07-9.07v-23.97h0ZM132.07,18.17v21.27c0,4.67-1.27,8.4-3.77,11.2-2.47,2.77-5.8,4.17-9.94,4.17s-7.47-1.4-9.97-4.17c-2.5-2.8-3.73-6.53-3.73-11.2v-21.27h8.93v21.81c0,1.93.4,3.43,1.23,4.47.8,1.03,2,1.53,3.53,1.53s2.77-.5,3.6-1.53c.8-1.03,1.24-2.53,1.24-4.47v-21.81h8.87ZM151.78,26.57v27.6h-8.93v-27.6h-7.73v-8.4h24.37v8.4h-7.7ZM162.91,54.17V18.17h8.93v36.01h-8.93ZM15.12,54.17v-8.6h12.4c.73,0,1.27-.17,1.67-.47.4-.3.6-.74.6-1.3,0-.5-.2-1-.6-1.47-.4-.5-1.03-1.04-1.87-1.53l-6.9-4.17c-1.57-.97-2.83-2.23-3.77-3.77-.93-1.53-1.4-3.1-1.4-4.73s.26-3,.8-4.27c.53-1.3,1.33-2.4,2.37-3.3,1-.87,2.2-1.5,3.67-1.83,1.43-.37,3.77-.57,7-.57h8.2v8.27h-9.4c-1.33,0-2.23.1-2.7.3-.5.2-.76.57-.76,1.07s.2.97.6,1.47c.37.47.97.93,1.77,1.43l6.77,4.03c1.93,1.17,3.4,2.53,4.4,4.17,1,1.6,1.5,3.34,1.5,5.24,0,1.63-.33,3.13-1.03,4.53-.67,1.4-1.63,2.5-2.87,3.4-1.07.73-2.27,1.27-3.6,1.6-1.34.33-3.47.5-6.4.5h-10.44ZM78.1,29c-.93-2.23-2.23-4.23-3.97-5.97-1.73-1.77-3.73-3.13-5.97-4.07-2.27-.93-4.63-1.4-7.1-1.4h-.03c-2.47,0-4.8.47-7.03,1.4-2.23.9-4.2,2.27-5.97,4-1.77,1.83-3.13,3.83-4.07,6.07-.93,2.23-1.4,4.6-1.4,7.1s.47,4.9,1.4,7.14c.93,2.2,2.3,4.23,4.07,6.03,1.77,1.77,3.77,3.13,6,4.07,2.2.93,4.53,1.43,7,1.43h.03c2.47,0,4.83-.5,7.1-1.43,2.23-.93,4.23-2.3,5.97-4.07,1.73-1.7,3.03-3.7,3.97-5.97.93-2.27,1.4-4.67,1.4-7.2s-.47-4.87-1.4-7.13ZM67.6,43.01c-1.8,1.86-3.97,2.8-6.53,2.8h-.03c-2.57,0-4.73-.93-6.57-2.83-1.83-1.9-2.73-4.17-2.73-6.87s.9-5,2.73-6.87c1.8-1.87,4-2.8,6.57-2.84h.03c2.57,0,4.77.94,6.57,2.84,1.77,1.87,2.7,4.13,2.7,6.87s-.93,5-2.73,6.9ZM351.59,29.23c1.89-1.67,4.5-2.56,7.84-2.7v-8.41c-3.42.15-6.37.81-8.88,1.94-2.48,1.16-4.62,2.85-6.34,5.09-1.74-2.24-3.86-3.93-6.36-5.09-2.46-1.13-5.36-1.77-8.73-1.94h-.15v8.41h.15c3.27.17,5.85,1.06,7.69,2.7,1.89,1.67,2.83,3.93,2.83,6.81s-.94,5.16-2.83,6.83c-1.84,1.67-4.43,2.58-7.69,2.75h-.15v8.43l.15-.02c3.39-.2,6.34-.89,8.8-2.02,2.51-1.15,4.62-2.8,6.29-4.97,1.67,2.17,3.76,3.81,6.27,4.97,2.5,1.15,5.48,1.84,8.95,2.04v-8.45c-3.34-.12-5.95-1.03-7.84-2.73-1.87-1.67-2.8-3.96-2.8-6.83s.93-5.14,2.8-6.81ZM262.94,54.01v-23.5c0-3.91,1.21-7.05,3.59-9.46,2.39-2.41,5.53-3.61,9.39-3.61,3.42,0,6.29,1.03,8.6,3.12,2.31,2.09,3.47,4.62,3.47,7.64,0,1.43-.35,2.65-1.01,3.74-.66,1.08-1.65,2.04-2.97,2.83,1.89.86,3.32,2.07,4.33,3.56.98,1.5,1.5,3.25,1.5,5.24,0,1.35-.25,2.6-.69,3.79-.47,1.18-1.11,2.23-1.99,3.17-1.23,1.25-2.65,2.16-4.28,2.73-1.62.54-3.96.81-7,.81h-2.51v-8.04h3.05c1.3,0,2.36-.3,3.1-.89.74-.59,1.11-1.4,1.11-2.46s-.37-1.89-1.11-2.51c-.74-.59-1.79-.88-3.1-.88h-3.05v-7.2h1.33c1.47,0,2.58-.27,3.32-.86.74-.54,1.11-1.4,1.11-2.53,0-.96-.32-1.77-.96-2.41-.64-.66-1.43-.98-2.39-.98-1.25,0-2.21.44-2.87,1.28-.64.86-.96,2.11-.96,3.74v23.69h-9ZM329.13,33.58c-.2-1.62-.61-3.17-1.23-4.67-.93-2.24-2.26-4.23-3.98-5.97-1.75-1.77-3.74-3.12-5.97-4.05-2.21-.93-4.6-1.4-7.08-1.4h-.03c-2.46,0-4.82.47-7.03,1.38-2.24.93-4.23,2.26-5.97,4.03-1.77,1.79-3.15,3.83-4.05,6.05-.93,2.24-1.4,4.6-1.4,7.08s.47,4.89,1.4,7.13c.91,2.24,2.29,4.25,4.05,6.05,1.77,1.77,3.76,3.15,6,4.08,2.21.93,4.55,1.4,7.01,1.4h.03c2.48,0,4.87-.47,7.08-1.4,2.24-.93,4.23-2.31,5.97-4.08,1.72-1.72,3.05-3.71,3.98-5.97.62-1.52,1.03-3.1,1.23-4.74.1-.79.15-1.62.15-2.46s-.05-1.62-.15-2.43ZM317.41,42.87c-1.77,1.89-3.96,2.83-6.54,2.83h-.03c-2.55,0-4.74-.96-6.56-2.83-1.82-1.92-2.73-4.2-2.73-6.91s.91-4.96,2.73-6.83c1.79-1.87,3.98-2.8,6.56-2.8h.03c2.58,0,4.77.93,6.54,2.8,1.79,1.84,2.7,4.13,2.7,6.83s-.91,5.04-2.7,6.91Z"/><path class="cls-2" d="M15.08,63.02h42.68v13.73h-26.24v5.08h24.45v12.08h-24.45v5.43h26.6v13.73H15.08v-50.04Z"/><path class="cls-2" d="M107.02,63.02l-16.23,24.38,16.94,25.67h-19.02l-7.93-13.01-8.01,13.01h-18.66l16.94-25.45-16.23-24.59h19.02l7.22,11.94,7.29-11.94h18.66Z"/><path class="cls-2" d="M104.94,63.02h22.52c13.3,0,22.38,5.93,22.38,17.8v.14c0,12.08-9.22,18.52-22.73,18.52h-5.43v13.58h-16.73v-50.04ZM126.18,87.54c4.29,0,7.15-1.93,7.15-5.5v-.14c0-3.65-2.65-5.51-7.08-5.51h-4.58v11.15h4.51Z"/><path class="cls-2" d="M204.61,108.7l18.16-16.01c7.65-6.86,10.44-10.72,10.44-15.73,0-5.86-4.65-9.58-10.08-9.58-5.72,0-9.44,3-13.44,8.58l-4.15-3c4.51-6.72,9.22-10.65,18.02-10.65s15.51,6,15.51,14.15v.14c0,7.29-3.86,11.8-12.65,19.45l-13.37,11.87h26.52v5.15h-34.96v-4.36Z"/><path class="cls-2" d="M243.43,88.18v-.14c0-14.01,8.37-25.88,21.23-25.88s21.02,11.72,21.02,25.74v.14c0,14.01-8.29,25.88-21.16,25.88s-21.09-11.72-21.09-25.74ZM279.82,88.18v-.14c0-10.94-6-20.73-15.3-20.73s-15.23,9.58-15.23,20.59v.14c0,10.94,6,20.73,15.37,20.73s15.16-9.65,15.16-20.59Z"/><path class="cls-2" d="M287.82,108.7l18.16-16.01c7.65-6.86,10.44-10.72,10.44-15.73,0-5.86-4.65-9.58-10.08-9.58-5.72,0-9.44,3-13.44,8.58l-4.15-3c4.51-6.72,9.22-10.65,18.02-10.65s15.51,6,15.51,14.15v.14c0,7.29-3.86,11.8-12.65,19.45l-13.37,11.87h26.52v5.15h-34.96v-4.36Z"/><path class="cls-2" d="M326,105.98l3.72-4.08c4.36,4.22,9.15,6.86,14.23,6.86,7.15,0,12.08-4.79,12.08-11.08v-.14c0-6.22-5.15-10.51-12.44-10.51-4.22,0-7.58,1.29-10.51,2.86l-3.79-2.5,1.43-24.38h28.81v5.22h-23.88l-1.07,16.01c2.93-1.29,5.72-2.22,9.86-2.22,9.72,0,17.3,5.72,17.3,15.3v.14c0,9.79-7.43,16.44-17.87,16.44-7.15,0-13.37-3.43-17.87-7.94Z"/><path class="cls-1" d="M195.67,97.56l-.83.54.35.56.73,1.16.39.62-1.05.69-.21.13-.63-1-.57-.91c-.23.45-.48.88-.73,1.31l.14.22-.44.29-.82.53-1.36-2.16-.77.5-.34.22.34.54,1.15,1.82-1.14.75-.11.07-1.24-1.97-1.48-2.35-.62-.98-2.4-3.81-2.46,1.61,4.37,6.94.36.58.35.55.14.22.07.11.73,1.16.68,1.09.38.6-1.26.83-.28-.44-1.19-1.89-.04-.06-.12.08-1.13.74-.35-.55-.33-.53.05-.03h-.05s-1.18.76-1.18.76h-.02s0,0,0,0l-.64-1.02-2.11,1.39-.26.17.65,1.03,1.17-.77.69,1.1,1.14-.75,1.29,2.04.16.25-.03.02h.06s-.04-.05-.04-.05l1.31-.86.34.55.4.63,1.26-.82.17.27,1.21,1.91,1.18-.77,1.44,2.29,8.36-5.48.02-.03-2.15-3.41,1.19-.78-2.94-4.66-.62-.98-.34.22Z"/><polygon class="cls-1" points="180.54 104.57 181.46 103.97 181.74 104.41 181.9 104.67 182.79 104.55 183.3 104.21 183.32 104.2 183.33 104.21 183.48 104.45 185 104.24 184.8 103.91 184.15 102.89 180.27 96.72 181.49 95.92 180.78 94.78 183.34 93.1 184.01 94.16 185.19 93.39 186.41 95.33 187.92 97.73 188.5 98.64 188.4 82.61 186.41 82.9 167.59 85.61 167.53 102.89 167.52 106.68 179.97 104.94 180.54 104.57"/><polygon class="cls-1" points="170.8 74.06 163.08 68.28 157.72 74.06 156.73 75.13 155.98 75.94 156.73 76.52 166.83 84.33 174.28 76.67 170.8 74.06"/><polygon class="cls-1" points="165.7 85.35 156.73 78.41 155.16 77.19 155.24 97.96 156.73 99.1 161.68 102.89 165.74 105.99 165.73 102.89 165.7 85.35"/><polygon class="cls-1" points="200.52 107.19 200.51 107.18 200.49 107.21 200.52 107.19"/><polygon class="cls-1" points="173.08 79.94 176.47 83.04 186.41 81.51 186.8 81.45 186.41 81.16 176.95 74.06 176.35 73.61 173.42 74.06 173.24 74.09 176.3 76.54 173.08 79.94"/><path class="cls-2" d="M202.52,107.47h.02s-2.81-4.47-2.81-4.47l1.32-.86-3.64-5.77-.08.05c.89-2.69,1.39-5.56,1.39-8.55,0-15.05-12.2-27.25-27.25-27.25s-27.24,12.2-27.24,27.25,12.19,27.25,27.24,27.25c5.8,0,11.16-1.83,15.58-4.91l1.17,1.86,1.18-.77,2.16,3.43,1.15-.76h0s9.83-6.44,9.83-6.44l-.03-.06ZM173.42,74.06l2.93-.46.61.46,9.46,7.09.39.29-.39.06-9.94,1.53-3.39-3.1,3.23-3.4-3.07-2.44.18-.03ZM161.68,102.89l-4.95-3.79-1.49-1.14-.08-20.77,1.57,1.22,8.97,6.95.03,17.54v3.1s-4.05-3.1-4.05-3.1ZM156.73,76.52l-.75-.58.75-.81.98-1.06,5.37-5.79,7.72,5.79,3.48,2.61-7.45,7.66-10.09-7.81ZM167.52,106.68v-3.79s.08-17.27.08-17.27l18.82-2.72,1.98-.29.1,16.03-.57-.91-1.51-2.4-1.22-1.94-1.18.77-.67-1.06-2.57,1.68.71,1.13-1.22.8,3.88,6.17.65,1.03.21.33-1.52.21-.15-.25h0s-.02,0-.02,0l-.52.34-.89.12-.16-.26-.28-.45-.92.6-.57.37-12.45,1.74ZM200.49,107.21l-8.36,5.48-1.44-2.29-1.18.77-1.21-1.91-.17-.27-1.26.82-.4-.63-.34-.55-1.31.86.04.06h-.06s.03-.02.03-.02l-.16-.25-1.29-2.04-1.14.75-.69-1.1-1.17.77-.65-1.03.26-.17,2.11-1.39.64,1.02h0s.02,0,.02,0l1.18-.77h.05s-.05.04-.05.04l.33.53.35.55,1.13-.74.12-.08.04.06,1.19,1.89.28.44,1.26-.83-.38-.6-.68-1.09-.73-1.16-.07-.11-.14-.22-.35-.55-.36-.58-4.37-6.94,2.46-1.61,2.4,3.81.62.98,1.48,2.35,1.24,1.97.11-.07,1.14-.75-1.15-1.82-.34-.54.34-.22.77-.5,1.36,2.16.82-.53.44-.29-.14-.22-1.23-1.95,1.11-.73.85,1.36.57.91.63,1,.21-.13,1.05-.69-.39-.62-.73-1.16-.35-.56.83-.54.34-.22.62.98,2.94,4.66-1.19.78,2.15,3.41h0s-.03.03-.03.03Z"/></svg>