<?xml version="1.0" encoding="UTF-8"?>
<svg id="Capa_1" xmlns="http://www.w3.org/2000/svg" version="1.1" xmlns:xlink="http://www.w3.org/1999/xlink" viewBox="0 0 839 275.5">
  <!-- Generator: Adobe Illustrator 29.1.0, SVG Export Plug-In . SVG Version: 2.1.0 Build 142)  -->
  <defs>
    <style>
      .st0, .st1, .st2 {
        fill: #fff;
      }

      .st1 {
        fill-rule: evenodd;
      }

      .st3 {
        fill: none;
      }

      .st2 {
        opacity: .4;
      }

      .st4 {
        clip-path: url(#clippath);
      }
    </style>
    <clipPath id="clippath">
      <rect class="st3" x="-2674.2" y="-418.7" width="1931.8" height="1089.4"/>
    </clipPath>
  </defs>
  <g class="st4">
    <circle class="st2" cx="97" cy="145.9" r="4.2"/>
  </g>
  <g>
    <g>
      <path class="st1" d="M480.2,112.1V47.4c0-4.1,1.1-7.3,3.1-9.7,2.2-2.4,5-3.6,8.5-3.6s5.4.8,7.5,2.5c2.1,1.6,4.5,4.8,7,9.5l10,18.2c2,3.7,3.7,7,5,9.5,1.1,2.6,2.1,5,2.8,7.2-.4-4.7-.8-8.9-1-12.7-.2-3.8-.4-6.7-.4-8.8v-23.8h18.3v67.2c0,3.1-.9,5.6-2.6,7.5-1.8,1.9-4.1,2.9-6.9,2.9s-4.6-.6-6.3-1.9c-1.7-1.3-3.6-3.7-5.7-7.4l-14.9-26.8c-.3-.6-.8-1.5-1.4-2.7-3.3-5.9-5.6-10.7-6.9-14.4.7,5.1,1.3,9.7,1.6,13.9.3,4.2.5,8.1.5,11.8v26.3h-18.4ZM468.6,58.7c-2-4.7-4.8-9-8.4-12.7-3.7-3.7-8-6.6-12.7-8.6-4.7-2-9.8-3-15.1-3h0c-5.2,0-10.2,1-14.8,3-4.7,1.9-9,4.8-12.7,8.5-3.7,3.9-6.7,8.1-8.6,12.9-2,4.7-3,9.8-3,15.1s1,10.4,3,15.1c1.9,4.7,4.8,9,8.6,12.8,3.8,3.8,8.1,6.6,12.7,8.6,4.7,2,9.6,3,14.8,3h0c5.3,0,10.3-1.1,15.1-3,4.7-2,9-4.9,12.7-8.6,3.6-3.6,6.4-7.9,8.4-12.7,1.9-4.8,2.9-9.9,2.9-15.3s-1-10.3-2.9-15.1ZM446.4,88.4c-3.8,4-8.5,5.9-13.9,5.9h0c-5.4,0-10-2-13.9-6-3.8-4-5.7-8.8-5.7-14.6s1.9-10.6,5.7-14.6c3.8-4,8.5-5.9,13.9-6h0c5.5,0,10.2,2,13.9,6,3.8,4,5.7,8.8,5.7,14.6s-1.9,10.6-5.7,14.6ZM196.6,35.7h19v50.7c0,2.6.7,4.5,2,5.9,1.3,1.3,3.3,2,5.9,2h14.8v17.8h-15.1c-9.1,0-15.7-2.1-20.2-6.3-4.3-4.2-6.5-10.6-6.5-19.2v-50.9h0ZM300,35.7v45.1c0,9.9-2.7,17.8-8,23.8-5.2,5.9-12.3,8.8-21.1,8.8s-15.8-3-21.1-8.8c-5.3-5.9-7.9-13.9-7.9-23.8v-45.1h19v46.3c0,4.1.8,7.3,2.6,9.5,1.7,2.2,4.2,3.3,7.5,3.3s5.9-1.1,7.6-3.3c1.7-2.2,2.6-5.4,2.6-9.5v-46.3h18.8ZM341.8,53.5v58.6h-19v-58.6h-16.4v-17.8h51.7v17.8h-16.3ZM365.4,112.1V35.7h19v76.4h-19ZM51.8,112.1v-18.2h26.3c1.6,0,2.7-.4,3.5-1,.8-.6,1.3-1.6,1.3-2.8s-.4-2.1-1.3-3.1c-.8-1.1-2.2-2.2-4-3.3l-14.6-8.8c-3.3-2.1-6-4.7-8-8-2-3.2-3-6.6-3-10s.6-6.4,1.7-9.1c1.1-2.8,2.8-5.1,5-7,2.1-1.8,4.7-3.2,7.8-3.9,3-.8,8-1.2,14.9-1.2h17.4v17.5h-19.9c-2.8,0-4.7.2-5.7.6-1.1.4-1.6,1.2-1.6,2.3s.4,2,1.3,3.1c.8,1,2.1,2,3.7,3l14.4,8.6c4.1,2.5,7.2,5.4,9.3,8.8,2.1,3.4,3.2,7.1,3.2,11.1s-.7,6.6-2.2,9.6c-1.4,3-3.5,5.3-6.1,7.2-2.3,1.6-4.8,2.7-7.6,3.4-2.8.7-7.4,1.1-13.6,1.1h-22.1ZM185.4,58.7c-2-4.7-4.7-9-8.4-12.7-3.7-3.7-7.9-6.6-12.7-8.6-4.8-2-9.8-3-15.1-3h0c-5.2,0-10.2,1-14.9,3-4.7,1.9-8.9,4.8-12.7,8.5-3.7,3.9-6.7,8.1-8.6,12.9-2,4.7-3,9.8-3,15.1s1,10.4,3,15.1c2,4.7,4.9,9,8.6,12.8,3.7,3.8,8,6.6,12.7,8.6,4.7,2,9.6,3,14.8,3h0c5.2,0,10.3-1.1,15.1-3,4.7-2,9-4.9,12.7-8.6,3.7-3.6,6.4-7.9,8.4-12.7,2-4.8,3-9.9,3-15.3s-1-10.3-3-15.1ZM163.2,88.4c-3.8,4-8.4,5.9-13.9,5.9h0c-5.4,0-10-2-13.9-6-3.9-4-5.8-8.8-5.8-14.6s1.9-10.6,5.8-14.6c3.8-4,8.5-5.9,13.9-6h0c5.4,0,10.1,2,13.9,6,3.7,4,5.7,8.8,5.7,14.6s-2,10.6-5.8,14.6ZM765.7,59.2c4-3.5,9.5-5.4,16.6-5.7v-17.8c-7.3.3-13.5,1.7-18.8,4.1-5.3,2.5-9.8,6-13.5,10.8-3.7-4.7-8.2-8.3-13.5-10.8-5.2-2.4-11.4-3.8-18.5-4.1h-.3v17.8h.3c6.9.4,12.4,2.2,16.3,5.7,4,3.5,6,8.3,6,14.4s-2,10.9-6,14.5c-3.9,3.5-9.4,5.5-16.3,5.8h-.3v17.9h.3c7.2-.5,13.5-1.9,18.7-4.3,5.3-2.4,9.8-5.9,13.3-10.5,3.5,4.6,8,8.1,13.3,10.5,5.3,2.4,11.6,3.9,19,4.3v-17.9c-7.1-.3-12.6-2.2-16.6-5.8-4-3.5-5.9-8.4-5.9-14.5s2-10.9,5.9-14.4ZM577.6,111.7v-49.8c0-8.3,2.6-15,7.6-20.1,5.1-5.1,11.7-7.7,19.9-7.7s13.3,2.2,18.2,6.6c4.9,4.4,7.4,9.8,7.4,16.2s-.7,5.6-2.1,7.9c-1.4,2.3-3.5,4.3-6.3,6,4,1.8,7,4.4,9.2,7.6,2.1,3.2,3.2,6.9,3.2,11.1s-.5,5.5-1.5,8c-1,2.5-2.3,4.7-4.2,6.7-2.6,2.7-5.6,4.6-9.1,5.8-3.4,1.1-8.4,1.7-14.9,1.7h-5.3v-17.1h6.5c2.8,0,5-.6,6.6-1.9,1.6-1.3,2.3-3,2.3-5.2s-.8-4-2.3-5.3c-1.6-1.3-3.8-1.9-6.6-1.9h-6.5v-15.3h2.8c3.1,0,5.5-.6,7-1.8,1.6-1.1,2.3-3,2.3-5.4s-.7-3.8-2-5.1c-1.4-1.4-3-2.1-5.1-2.1s-4.7.9-6.1,2.7c-1.4,1.8-2,4.5-2,7.9v50.3h-19.1ZM718,68.4c-.4-3.4-1.3-6.7-2.6-9.9-2-4.7-4.8-9-8.4-12.7-3.7-3.8-7.9-6.6-12.7-8.6-4.7-2-9.8-3-15-3h0c-5.2,0-10.2,1-14.9,2.9-4.7,2-9,4.8-12.7,8.6-3.8,3.8-6.7,8.1-8.6,12.8-2,4.7-3,9.8-3,15s1,10.4,3,15.1c1.9,4.7,4.8,9,8.6,12.8,3.8,3.8,8,6.7,12.7,8.7,4.7,2,9.6,3,14.9,3h0c5.3,0,10.3-1,15-3,4.7-2,9-4.9,12.7-8.7,3.6-3.6,6.5-7.9,8.4-12.7,1.3-3.2,2.2-6.6,2.6-10.1.2-1.7.3-3.4.3-5.2s-.1-3.4-.3-5.2ZM693.1,88.1c-3.8,4-8.4,6-13.9,6h0c-5.4,0-10.1-2-13.9-6-3.9-4.1-5.8-8.9-5.8-14.7s1.9-10.5,5.8-14.5c3.8-4,8.4-5.9,13.9-5.9h0c5.5,0,10.1,2,13.9,5.9,3.8,3.9,5.7,8.8,5.7,14.5s-1.9,10.7-5.7,14.7Z"/>
      <g>
        <path class="st0" d="M51.8,130.8h90.5v29.1h-55.7v10.8h51.9v25.6h-51.9v11.5h56.4v29.1H51.8v-106.2Z"/>
        <path class="st0" d="M246.8,130.8l-34.4,51.7,35.9,54.4h-40.3l-16.8-27.6-17,27.6h-39.6l35.9-54-34.4-52.2h40.3l15.3,25.3,15.5-25.3h39.6Z"/>
        <path class="st0" d="M242.4,130.8h47.8c28.2,0,47.5,12.6,47.5,37.8v.3c0,25.6-19.6,39.3-48.2,39.3h-11.5v28.8h-35.5v-106.2ZM287.4,182.9c9.1,0,15.2-4.1,15.2-11.7v-.3c0-7.7-5.6-11.7-15-11.7h-9.7v23.7h9.6Z"/>
        <path class="st0" d="M453.8,227.8l38.5-34c16.2-14.6,22.1-22.8,22.1-33.4s-9.9-20.3-21.4-20.3-20,6.4-28.5,18.2l-8.8-6.4c9.6-14.3,19.6-22.6,38.2-22.6s32.9,12.7,32.9,30v.3c0,15.5-8.2,25-26.8,41.3l-28.4,25.2h56.3v10.9h-74.2v-9.3Z"/>
        <path class="st0" d="M536.2,184.2v-.3c0-29.7,17.7-54.9,45-54.9s44.6,24.9,44.6,54.6v.3c0,29.7-17.6,54.9-44.9,54.9s-44.7-24.9-44.7-54.6ZM613.4,184.2v-.3c0-23.2-12.7-44-32.5-44s-32.3,20.3-32.3,43.7v.3c0,23.2,12.7,44,32.6,44s32.2-20.5,32.2-43.7Z"/>
        <path class="st0" d="M630.4,227.8l38.5-34c16.2-14.6,22.1-22.8,22.1-33.4s-9.9-20.3-21.4-20.3-20,6.4-28.5,18.2l-8.8-6.4c9.6-14.3,19.6-22.6,38.2-22.6s32.9,12.7,32.9,30v.3c0,15.5-8.2,25-26.8,41.3l-28.4,25.2h56.3v10.9h-74.2v-9.3Z"/>
        <path class="st0" d="M711.4,222l7.9-8.6c9.3,8.9,19.4,14.6,30.2,14.6s25.6-10.2,25.6-23.5v-.3c0-13.2-10.9-22.3-26.4-22.3s-16.1,2.7-22.3,6.1l-8-5.3,3-51.7h61.1v11.1h-50.7l-2.3,34c6.2-2.7,12.1-4.7,20.9-4.7,20.6,0,36.7,12.1,36.7,32.5v.3c0,20.8-15.8,34.9-37.9,34.9s-28.4-7.3-37.9-16.8Z"/>
      </g>
    </g>
    <g>
      <path class="st3" d="M434.9,204.1l-1.8,1.2.7,1.2,1.5,2.5.8,1.3-2.2,1.5-.4.3-1.3-2.1-1.2-1.9c-.5,1-1,1.9-1.6,2.8l.3.5-.9.6-1.7,1.1-2.9-4.6-1.6,1.1-.7.5.7,1.1,2.4,3.9-2.4,1.6-.2.2-2.6-4.2-3.1-5-1.3-2.1-5.1-8.1-5.2,3.4,9.3,14.7.8,1.2.7,1.2.3.5v.2c.1,0,1.7,2.5,1.7,2.5l1.5,2.3.8,1.3-2.7,1.8-.6-.9-2.5-4h0c0-.1-.3,0-.3,0l-2.4,1.6-.7-1.2-.7-1.1h0c0,0-.1,0-.1,0l-2.5,1.6h0s0,0,0,0l-1.4-2.2-4.5,2.9-.5.4,1.4,2.2,2.5-1.6,1.5,2.3,2.4-1.6,2.7,4.3.3.5h0s.1,0,.1,0h0c0-.1,2.8-1.9,2.8-1.9l.7,1.2.8,1.3,2.7-1.7.4.6,2.6,4.1,2.5-1.6,3.1,4.9,17.7-11.6h0c0,0-4.6-7.3-4.6-7.3l2.5-1.7-6.2-9.9-1.3-2.1-.7.5Z"/>
      <polygon class="st3" points="402.8 219 404.7 217.7 405.3 218.7 405.7 219.2 407.5 218.9 408.6 218.2 408.7 218.2 408.7 218.2 409 218.7 412.2 218.3 411.8 217.6 410.4 215.4 402.2 202.3 404.8 200.6 403.3 198.2 408.7 194.7 410.1 196.9 412.6 195.3 415.2 199.4 418.4 204.5 419.7 206.4 419.4 172.4 415.2 173 375.3 178.8 375.2 215.4 375.1 223.5 401.6 219.8 402.8 219"/>
      <polygon class="st3" points="382.1 154.3 365.7 142 354.4 154.3 352.3 156.5 350.7 158.2 352.3 159.5 373.7 176.1 389.5 159.8 382.1 154.3"/>
      <polygon class="st3" points="371.3 178.2 352.3 163.5 348.9 160.9 349.1 205 352.3 207.4 362.8 215.4 371.4 222 371.4 215.4 371.3 178.2"/>
      <polygon class="st3" points="445.2 224.5 445.1 224.5 445.1 224.6 445.2 224.5"/>
      <polygon class="st3" points="386.9 166.7 394.1 173.3 415.2 170.1 416.1 169.9 415.2 169.3 395.2 154.3 393.9 153.3 387.7 154.3 387.3 154.3 393.8 159.5 386.9 166.7"/>
      <path class="st0" d="M449.4,225.1h0s-6-9.5-6-9.5l2.8-1.8-7.7-12.2h-.2c1.9-5.6,2.9-11.7,2.9-18,0-31.9-25.9-57.8-57.8-57.8s-57.8,25.9-57.8,57.8,25.9,57.8,57.8,57.8,23.7-3.9,33.1-10.4l2.5,3.9,2.5-1.6,4.6,7.3,2.4-1.6h0s20.9-13.7,20.9-13.7h0ZM387.7,154.3l6.2-1,1.3,1,20.1,15,.8.6h-.8c0,.1-21.1,3.4-21.1,3.4l-7.2-6.6,6.8-7.2-6.5-5.2h.4ZM362.8,215.4l-10.5-8-3.2-2.4-.2-44.1,3.3,2.6,19,14.7v37.2c0,0,0,6.6,0,6.6l-8.6-6.6ZM352.3,159.5l-1.6-1.2,1.6-1.7,2.1-2.3,11.4-12.3,16.4,12.3,7.4,5.5-15.8,16.3-21.4-16.6ZM375.1,223.5v-8s.2-36.6.2-36.6l39.9-5.8,4.2-.6.2,34-1.2-1.9-3.2-5.1-2.6-4.1-2.5,1.6-1.4-2.2-5.4,3.6,1.5,2.4-2.6,1.7,8.2,13.1,1.4,2.2.4.7-3.2.4-.3-.5h0s0,0,0,0l-1.1.7-1.9.3-.3-.6-.6-.9-1.9,1.3-1.2.8-26.4,3.7ZM445.1,224.6l-17.7,11.6-3.1-4.9-2.5,1.6-2.6-4.1-.4-.6-2.7,1.7-.8-1.3-.7-1.2-2.8,1.8h0c0,.1-.1.1-.1.1h0s-.3-.6-.3-.6l-2.7-4.3-2.4,1.6-1.5-2.3-2.5,1.6-1.4-2.2.5-.4,4.5-2.9,1.4,2.2h0s0,0,0,0l2.5-1.6h.1s0,0,0,0l.7,1.1.7,1.2,2.4-1.6.3-.2h0c0,.1,2.5,4.1,2.5,4.1l.6.9,2.7-1.8-.8-1.3-1.5-2.3-1.5-2.5v-.2c-.1,0-.4-.5-.4-.5l-.7-1.2-.8-1.2-9.3-14.7,5.2-3.4,5.1,8.1,1.3,2.1,3.1,5,2.6,4.2.2-.2,2.4-1.6-2.4-3.9-.7-1.1.7-.5,1.6-1.1,2.9,4.6,1.7-1.1.9-.6-.3-.5-2.6-4.1,2.3-1.5,1.8,2.9,1.2,1.9,1.3,2.1.4-.3,2.2-1.5-.8-1.3-1.5-2.5-.7-1.2,1.8-1.2.7-.5,1.3,2.1,6.2,9.9-2.5,1.7,4.6,7.2h0s0,0,0,0Z"/>
    </g>
  </g>
</svg>